<?xml version="1.0" encoding="UTF-8" standalone="no"?>
<svg
   version="1.0"
   viewBox="0 0 192.000000 192.000000"
   preserveAspectRatio="xMidYMid meet"
   xmlns="http://www.w3.org/2000/svg"
   xmlns:svg="http://www.w3.org/2000/svg">
  <path
     id="path2"
     d="m 1.9889475,-10.420624 c -0.00321,0.0014 -0.0062,0.0032 -0.00962,0.0047 l 5.2489024,0.0016 c 0.0034,-0.0021 0.0075,-0.0041 0.01112,-0.0062 z m -9.8043381,0.0016 5.7841759,0.0016 0.0016,-0.0016 z M 82.013492,10.186501 c -2.768091,0.07304 -5.074413,0.588033 -6.383365,1.578375 -0.545405,0.422553 -3.05369,1.372775 -5.453423,2.11224 -20.833937,6.443842 -43.740639,28.945806 -34.359918,33.805092 2.836028,1.478918 11.561869,-2.430116 13.634353,-6.233034 0.763543,-1.478918 3.709562,-4.542751 6.327444,-6.655486 10.471501,-8.450942 22.251807,-13.521421 31.1962,-13.521421 4.144919,0 5.563039,0.527804 8.180929,3.274359 2.72699,2.74656 3.16287,4.120544 3.38103,10.141836 0.32723,7.922762 -0.98204,14.472195 -3.59994,18.275118 -0.98161,1.478918 -1.85306,3.169344 -1.96214,3.908802 -0.872628,5.281834 -15.817731,24.401773 -23.016862,29.472289 -2.290642,1.584562 -5.562843,4.226021 -7.417165,5.810581 -3.490506,3.169135 -21.051317,12.042298 -21.923942,11.197198 -0.327238,-0.31693 -0.109585,-1.37268 0.544861,-2.53469 1.090781,-1.901483 3.380957,-7.078128 7.089608,-16.162871 0.327236,-0.845102 1.855535,-3.486655 3.382626,-5.810592 1.418019,-2.324028 2.616834,-5.281473 2.725912,-6.443487 0,-1.267653 0.982786,-3.486774 2.182647,-4.9657 1.199863,-1.478834 2.181051,-3.167789 2.181051,-3.907255 0,-0.633814 2.072626,-4.860189 4.472348,-9.296934 2.508792,-4.436744 5.345309,-10.246047 6.436093,-12.886975 1.963417,-4.753649 1.96309,-4.859652 -0.327557,-6.655484 -2.72695,-2.112733 -7.309171,-2.325051 -9.599811,-0.529219 -0.981702,0.739456 -2.290343,3.381357 -2.944817,5.705364 -0.763548,2.429641 -2.072192,4.964351 -2.944815,5.703817 -0.872625,0.739456 -1.63619,2.219121 -1.63619,3.381129 0,1.267642 -0.981188,2.322998 -2.181049,2.63991 -1.745249,0.422544 -1.964375,0.845008 -0.98267,2.007014 0.654476,0.845091 0.87295,2.219535 0.327557,3.275905 -0.43631,1.056366 -0.871993,2.641261 -0.981073,3.486352 -0.436307,3.169131 -4.364258,10.035275 -7.091205,12.359305 -1.527102,1.267653 -2.180829,2.429465 -1.417284,2.429465 1.527097,0 -0.217963,5.809147 -2.508608,8.555728 -0.872623,0.8451 -1.527531,2.008044 -1.527531,2.536232 0,0.422456 -1.309068,2.958055 -2.836165,5.493358 -2.508791,4.225495 -2.94493,4.542095 -4.144793,2.851905 -1.090784,-1.373295 -2.290903,-1.585085 -5.672327,-1.056905 -2.290634,0.42256 -5.126833,1.268365 -6.108534,1.796565 -2.617882,1.3733 -8.5084921,11.408073 -8.5084921,14.471543 0,6.54955 5.9998481,10.24809 14.6170261,9.19173 6.981009,-0.95074 20.943543,-4.54354 24.870357,-6.44505 1.636177,-0.84509 3.707953,-1.47779 4.689657,-1.47779 0.981703,0 2.835852,-1.05771 4.144791,-2.43101 2.399714,-2.32391 4.145717,-3.38059 12.108422,-7.50038 2.290642,-1.267653 4.472245,-2.956603 4.908561,-3.907263 0.327236,-0.95074 2.181887,-2.959085 4.036132,-4.438025 1.854348,-1.58445 6.326688,-6.231976 9.817121,-10.457484 3.490544,-4.225509 6.87177,-8.239624 7.41717,-8.767718 0.65448,-0.633826 3.16277,-4.648672 5.453418,-8.979721 5.89018,-10.774987 8.18178,-20.070967 7.96361,-31.374096 -0.21814,-8.134038 -0.5458,-9.824541 -3.16372,-13.416194 -1.74526,-2.429639 -4.90855,-4.96457 -8.180918,-6.443486 -4.70394,-2.178761 -10.601206,-3.284673 -15.21461,-3.162942 z M 182.11962,17.28455 c -0.81796,-0.02642 -2.264,0.607836 -5.1546,1.87548 -4.79949,2.0071 -5.7816,2.957885 -6.4361,6.338262 -0.54538,2.8522 -10.14405,24.085126 -12.76194,28.204957 -1.19987,1.90147 -1.74493,3.486352 -1.30862,3.486352 0.43633,0 0.32691,0.526756 -0.32756,1.160571 -0.65447,0.633816 -0.98192,1.796781 -0.76375,2.536235 0.87255,2.007115 -1.63524,3.06307 -7.19825,3.274346 -2.7269,0.105647 -7.19998,0.527988 -10.03605,0.844901 l -5.12587,0.739664 1.96215,-4.331238 c 1.09082,-2.429648 2.61789,-4.964776 3.27236,-5.598594 0.65451,-0.633816 1.2,-1.479238 1.2,-1.901786 0,-1.373282 5.78196,-9.400621 6.76365,-9.400621 0.54538,0 0.65479,-0.423076 0.32756,-1.056894 -0.32724,-0.528188 2.29005,-5.070133 5.88964,-10.035064 5.45386,-7.394574 6.21708,-8.979722 4.58099,-8.979722 -1.19986,0 -2.50893,-0.52829 -2.83616,-1.162118 -2.39973,-3.591642 -11.45332,-2.112405 -11.45332,1.901788 0,0.95073 -0.6533,2.534491 -1.52591,3.379583 -0.87264,0.950729 -3.3822,4.965113 -5.56367,9.084946 -2.18161,4.014194 -5.23655,8.66292 -6.76368,10.141836 -1.74524,1.795823 -2.1808,2.957444 -1.41726,3.274356 0.9817,0.316912 0.4358,2.112886 -1.52753,5.915815 -1.63619,3.063466 -2.61696,6.022059 -2.28973,6.55025 0.43631,0.633828 -0.10946,1.055364 -1.0913,1.055364 -0.87265,0 -1.96407,0.739463 -2.2913,1.584563 -0.43632,0.95074 -2.18085,1.584156 -4.68968,1.689781 -5.67201,0.105647 -9.70889,1.374644 -7.96361,2.43102 0.76356,0.422552 1.091,1.689887 0.76376,2.851893 -0.43631,1.162014 -0.21702,2.007028 0.54646,2.007028 0.76356,0 0.98119,0.844574 0.54487,2.112238 -0.54538,1.690193 -0.21857,2.113768 1.74484,2.113768 1.96332,0 2.1817,0.31662 1.19997,1.267345 -0.76355,0.739467 -1.30862,2.217981 -1.30862,3.274359 0,1.690201 -0.32734,1.795955 -1.63619,0.739675 -1.41803,-1.162016 -1.63618,-0.740087 -1.63618,2.53468 0,2.218393 -1.52701,6.761223 -3.70861,10.986728 -5.235678,10.141133 -5.672178,11.831423 -2.83614,11.091973 1.52702,-0.42256 2.18104,-0.10509 2.18104,1.05689 0,1.37328 0.54572,1.4784 3.59992,0.52768 5.99938,-1.9015 6.65397,-2.53613 7.74474,-6.55027 0.43631,-2.2184 1.63639,-4.22479 2.39993,-4.541713 0.87265,-0.31691 1.52755,-1.37277 1.52755,-2.53469 0,-1.05637 0.54508,-3.064315 1.30862,-4.543235 0.98172,-2.11266 1.52614,-2.42958 2.72592,-1.58457 1.09082,0.95074 1.41889,0.42255 1.41889,-3.169129 0,-2.323934 0.5455,-4.33124 1.19997,-4.33124 0.65448,0 0.8721,-0.845416 0.54488,-1.901797 -1.19986,-3.697222 0.87293,-4.646811 12.21705,-5.069361 l 10.90845,-0.529224 -0.8724,3.486353 c -1.41795,5.493159 -3.38199,10.352288 -4.36372,10.352288 -0.43633,0 -1.09165,1.37329 -1.41887,3.16912 -0.43622,1.690205 -1.63511,5.176035 -2.72591,7.605608 -1.19989,2.53531 -2.94587,6.97202 -3.92751,9.92985 -0.98169,2.95776 -2.72602,7.18337 -3.92589,9.5074 -1.19974,2.21831 -2.18263,4.75462 -2.18263,5.70535 0,0.95064 -0.9817,3.59137 -2.07239,6.02105 -1.19985,2.32402 -3.27205,7.28951 -4.58101,10.98673 -1.30896,3.69733 -2.72739,7.18378 -3.16372,7.81762 -0.5454,0.52817 -2.50893,4.85942 -4.47234,9.50738 -2.6179,6.33824 -3.59832,10.13995 -3.59832,14.9992 -0.10926,6.9721 0.5445,7.81833 3.92587,4.86048 1.09078,-0.95073 3.05474,-2.21963 4.36368,-2.85347 2.83608,-1.37328 3.81821,-3.16837 8.5085,-16.47853 5.12672,-14.47229 6.43577,-18.06466 8.18094,-21.65624 0.76354,-1.79586 1.96234,-5.28199 2.72591,-7.92283 1.30894,-4.96497 6.54495,-20.28234 7.30852,-21.02182 0.21814,-0.31691 1.0911,0.42265 1.96373,1.58456 1.52702,1.79585 1.63543,1.47863 1.41729,-3.90878 -0.10926,-4.11988 0.54645,-7.28807 2.18263,-10.562763 1.19987,-2.53529 3.27206,-7.711438 4.58102,-11.514397 1.30884,-3.802861 3.27249,-8.345987 4.47232,-10.141829 1.0908,-1.795841 2.07242,-4.225087 2.07242,-5.281369 0,-1.901476 2.61733,-6.655268 7.0896,-12.676524 1.19988,-1.584554 1.63715,-3.064625 0.98269,-3.275903 -0.54542,-0.211272 1.96318,-6.44407 5.78096,-13.83864 6.65384,-13.098962 7.52615,-16.162103 6.21719,-21.127023 -0.38179,-1.373282 -0.57202,-2.059522 -1.39014,-2.085932 z" />
</svg>
